# xmcd CD database file
#
# Track frame offsets:
#	150
#	12788
#	27409
#	42110
#	75548
#	99495
#	127406
#	140740
#	153872
#	168353
#	182352
#	193986
#	221974
#	234842
#	249244
#	263515
#	277221
#	291203
#	300703
#	322368
#	341342
#
# Disc length: 4787 seconds
#
# Revision: 0
# Processed by: cddbd v1.5.1PL0 Copyright (c) Steve Scherf et al.
# Submitted via: CDex 1.51
#
DISCID=3212b115
DTITLE=THE GRATEST JAZZ - (4) When I Fall in Love
DYEAR=2004
DGENRE=Jazz
TTITLE0=All of Me
TTITLE1=Stompin' at the Savoy
TTITLE2=Oh, Lady Be Good
TTITLE3=Cheryl
TTITLE4=Me And Mrs Jones
TTITLE5=Heartplace
TTITLE6=I'm Thru with Love
TTITLE7=Take the 'A' Train
TTITLE8=And the Angels Sing
TTITLE9=Jumpin' at the Woodside
TTITLE10=Caldonia
TTITLE11=Fables of Faubus
TTITLE12=Embraceble You
TTITLE13=Bird of Paradise
TTITLE14=Hot House
TTITLE15=I Can't Give You Anything But Love
TTITLE16=Ruby, My Dear
TTITLE17=Chicago
TTITLE18=Sonny's Blues
TTITLE19=When I Fall in Love
TTITLE20=I Wish I Knew How It Would Feel
EXTD=YEAR: 2004
EXTT0=
EXTT1=
EXTT2=
EXTT3=
EXTT4=
EXTT5=
EXTT6=
EXTT7=
EXTT8=
EXTT9=
EXTT10=
EXTT11=
EXTT12=
EXTT13=
EXTT14=
EXTT15=
EXTT16=
EXTT17=
EXTT18=
EXTT19=
EXTT20=
PLAYORDER=
